<mxfile host="app.diagrams.net" modified="2024-05-07T03:03:00.950Z" agent="Mozilla/5.0 (Windows NT 10.0; Win64; x64) AppleWebKit/537.36 (KHTML, like Gecko) Chrome/124.0.0.0 Safari/537.36" etag="pGwNxq3tKFkncaFHhGTz" version="24.3.1" type="google">
  <diagram name="Halaman-1" id="ulXtL263a2V3joa1po8x">
    <mxGraphModel grid="1" page="1" gridSize="10" guides="1" tooltips="1" connect="1" arrows="1" fold="1" pageScale="1" pageWidth="827" pageHeight="1169" math="0" shadow="0">
      <root>
        <mxCell id="0" />
        <mxCell id="1" parent="0" />
        <mxCell id="aVzFbYq9FzDBz_rFKfk8-8" value="login" style="shape=umlLifeline;perimeter=lifelinePerimeter;whiteSpace=wrap;html=1;container=1;dropTarget=0;collapsible=0;recursiveResize=0;outlineConnect=0;portConstraint=eastwest;newEdgeStyle={&quot;curved&quot;:0,&quot;rounded&quot;:0};" vertex="1" parent="1">
          <mxGeometry x="150" y="10" width="100" height="380" as="geometry" />
        </mxCell>
        <mxCell id="aVzFbYq9FzDBz_rFKfk8-15" value="" style="html=1;points=[[0,0,0,0,5],[0,1,0,0,-5],[1,0,0,0,5],[1,1,0,0,-5]];perimeter=orthogonalPerimeter;outlineConnect=0;targetShapes=umlLifeline;portConstraint=eastwest;newEdgeStyle={&quot;curved&quot;:0,&quot;rounded&quot;:0};" vertex="1" parent="aVzFbYq9FzDBz_rFKfk8-8">
          <mxGeometry x="45" y="120" width="10" height="120" as="geometry" />
        </mxCell>
        <mxCell id="aVzFbYq9FzDBz_rFKfk8-9" value="system" style="shape=umlLifeline;perimeter=lifelinePerimeter;whiteSpace=wrap;html=1;container=1;dropTarget=0;collapsible=0;recursiveResize=0;outlineConnect=0;portConstraint=eastwest;newEdgeStyle={&quot;curved&quot;:0,&quot;rounded&quot;:0};" vertex="1" parent="1">
          <mxGeometry x="280" width="100" height="390" as="geometry" />
        </mxCell>
        <mxCell id="aVzFbYq9FzDBz_rFKfk8-16" value="" style="html=1;points=[[0,0,0,0,5],[0,1,0,0,-5],[1,0,0,0,5],[1,1,0,0,-5]];perimeter=orthogonalPerimeter;outlineConnect=0;targetShapes=umlLifeline;portConstraint=eastwest;newEdgeStyle={&quot;curved&quot;:0,&quot;rounded&quot;:0};" vertex="1" parent="aVzFbYq9FzDBz_rFKfk8-9">
          <mxGeometry x="45" y="130" width="10" height="180" as="geometry" />
        </mxCell>
        <mxCell id="aVzFbYq9FzDBz_rFKfk8-10" value="database" style="shape=umlLifeline;perimeter=lifelinePerimeter;whiteSpace=wrap;html=1;container=1;dropTarget=0;collapsible=0;recursiveResize=0;outlineConnect=0;portConstraint=eastwest;newEdgeStyle={&quot;curved&quot;:0,&quot;rounded&quot;:0};" vertex="1" parent="1">
          <mxGeometry x="420" width="100" height="300" as="geometry" />
        </mxCell>
        <mxCell id="aVzFbYq9FzDBz_rFKfk8-19" value="" style="html=1;points=[[0,0,0,0,5],[0,1,0,0,-5],[1,0,0,0,5],[1,1,0,0,-5]];perimeter=orthogonalPerimeter;outlineConnect=0;targetShapes=umlLifeline;portConstraint=eastwest;newEdgeStyle={&quot;curved&quot;:0,&quot;rounded&quot;:0};" vertex="1" parent="aVzFbYq9FzDBz_rFKfk8-10">
          <mxGeometry x="45" y="160" width="10" height="110" as="geometry" />
        </mxCell>
        <mxCell id="YFojmDIgb_dbyA65SGon-75" value="" style="html=1;points=[[0,0,0,0,5],[0,1,0,0,-5],[1,0,0,0,5],[1,1,0,0,-5]];perimeter=orthogonalPerimeter;outlineConnect=0;targetShapes=umlLifeline;portConstraint=eastwest;newEdgeStyle={&quot;curved&quot;:0,&quot;rounded&quot;:0};" vertex="1" parent="aVzFbYq9FzDBz_rFKfk8-10">
          <mxGeometry x="55" y="180" width="10" height="40" as="geometry" />
        </mxCell>
        <mxCell id="YFojmDIgb_dbyA65SGon-76" value="validasi data" style="html=1;align=left;spacingLeft=2;endArrow=block;rounded=0;edgeStyle=orthogonalEdgeStyle;curved=0;rounded=0;" edge="1" parent="aVzFbYq9FzDBz_rFKfk8-10" source="aVzFbYq9FzDBz_rFKfk8-10" target="YFojmDIgb_dbyA65SGon-75">
          <mxGeometry relative="1" as="geometry">
            <mxPoint x="70" y="140" as="sourcePoint" />
            <Array as="points">
              <mxPoint x="110" y="160" />
              <mxPoint x="110" y="200" />
            </Array>
          </mxGeometry>
        </mxCell>
        <mxCell id="aVzFbYq9FzDBz_rFKfk8-13" value="home" style="shape=umlLifeline;perimeter=lifelinePerimeter;whiteSpace=wrap;html=1;container=1;dropTarget=0;collapsible=0;recursiveResize=0;outlineConnect=0;portConstraint=eastwest;newEdgeStyle={&quot;curved&quot;:0,&quot;rounded&quot;:0};" vertex="1" parent="1">
          <mxGeometry x="580" width="100" height="300" as="geometry" />
        </mxCell>
        <mxCell id="YFojmDIgb_dbyA65SGon-11" value="" style="shape=umlLifeline;perimeter=lifelinePerimeter;whiteSpace=wrap;html=1;container=1;dropTarget=0;collapsible=0;recursiveResize=0;outlineConnect=0;portConstraint=eastwest;newEdgeStyle={&quot;curved&quot;:0,&quot;rounded&quot;:0};participant=umlActor;" vertex="1" parent="1">
          <mxGeometry x="60" y="10" width="20" height="380" as="geometry" />
        </mxCell>
        <mxCell id="YFojmDIgb_dbyA65SGon-12" value="" style="html=1;points=[[0,0,0,0,5],[0,1,0,0,-5],[1,0,0,0,5],[1,1,0,0,-5]];perimeter=orthogonalPerimeter;outlineConnect=0;targetShapes=umlLifeline;portConstraint=eastwest;newEdgeStyle={&quot;curved&quot;:0,&quot;rounded&quot;:0};" vertex="1" parent="YFojmDIgb_dbyA65SGon-11">
          <mxGeometry x="5" y="40" width="10" height="80" as="geometry" />
        </mxCell>
        <mxCell id="YFojmDIgb_dbyA65SGon-70" value="" style="html=1;points=[[0,0,0,0,5],[0,1,0,0,-5],[1,0,0,0,5],[1,1,0,0,-5]];perimeter=orthogonalPerimeter;outlineConnect=0;targetShapes=umlLifeline;portConstraint=eastwest;newEdgeStyle={&quot;curved&quot;:0,&quot;rounded&quot;:0};" vertex="1" parent="YFojmDIgb_dbyA65SGon-11">
          <mxGeometry x="5" y="290" width="10" height="90" as="geometry" />
        </mxCell>
        <mxCell id="YFojmDIgb_dbyA65SGon-13" value="&lt;div&gt;user dan admin&lt;/div&gt;" style="text;html=1;align=center;verticalAlign=middle;resizable=0;points=[];autosize=1;strokeColor=none;fillColor=none;" vertex="1" parent="1">
          <mxGeometry x="-30" y="25" width="110" height="30" as="geometry" />
        </mxCell>
        <mxCell id="YFojmDIgb_dbyA65SGon-15" value="" style="html=1;verticalAlign=bottom;endArrow=block;curved=0;rounded=0;" edge="1" parent="1">
          <mxGeometry width="80" relative="1" as="geometry">
            <mxPoint x="80" y="130" as="sourcePoint" />
            <mxPoint x="190" y="130" as="targetPoint" />
          </mxGeometry>
        </mxCell>
        <mxCell id="YFojmDIgb_dbyA65SGon-22" value="" style="html=1;verticalAlign=bottom;endArrow=block;curved=0;rounded=0;" edge="1" parent="1">
          <mxGeometry width="80" relative="1" as="geometry">
            <mxPoint x="210" y="150" as="sourcePoint" />
            <mxPoint x="320" y="150" as="targetPoint" />
          </mxGeometry>
        </mxCell>
        <mxCell id="YFojmDIgb_dbyA65SGon-23" value="pasword salah" style="html=1;verticalAlign=bottom;endArrow=open;dashed=1;endSize=8;curved=0;rounded=0;" edge="1" parent="1">
          <mxGeometry x="-0.1667" y="10" relative="1" as="geometry">
            <mxPoint x="190" y="250" as="sourcePoint" />
            <mxPoint x="70" y="250" as="targetPoint" />
            <mxPoint as="offset" />
          </mxGeometry>
        </mxCell>
        <mxCell id="YFojmDIgb_dbyA65SGon-30" value="" style="html=1;verticalAlign=bottom;endArrow=open;dashed=1;endSize=8;curved=0;rounded=0;" edge="1" parent="1">
          <mxGeometry relative="1" as="geometry">
            <mxPoint x="310" y="230" as="sourcePoint" />
            <mxPoint x="210" y="230" as="targetPoint" />
          </mxGeometry>
        </mxCell>
        <mxCell id="YFojmDIgb_dbyA65SGon-33" value="pasword salah" style="edgeLabel;html=1;align=center;verticalAlign=middle;resizable=0;points=[];" connectable="0" vertex="1" parent="YFojmDIgb_dbyA65SGon-30">
          <mxGeometry x="0.0207" relative="1" as="geometry">
            <mxPoint as="offset" />
          </mxGeometry>
        </mxCell>
        <mxCell id="YFojmDIgb_dbyA65SGon-41" value="&lt;span style=&quot;font-size: 11px;&quot;&gt;masukan name dn pw&lt;/span&gt;" style="text;html=1;align=center;verticalAlign=middle;resizable=0;points=[];autosize=1;strokeColor=none;fillColor=none;" vertex="1" parent="1">
          <mxGeometry x="70" y="100" width="130" height="30" as="geometry" />
        </mxCell>
        <mxCell id="YFojmDIgb_dbyA65SGon-43" value="&lt;font style=&quot;font-size: 11px;&quot;&gt;masukan name dn pw&lt;/font&gt;" style="text;html=1;align=center;verticalAlign=middle;resizable=0;points=[];autosize=1;strokeColor=none;fillColor=none;" vertex="1" parent="1">
          <mxGeometry x="200" y="118" width="130" height="30" as="geometry" />
        </mxCell>
        <mxCell id="YFojmDIgb_dbyA65SGon-46" value="" style="html=1;verticalAlign=bottom;endArrow=block;curved=0;rounded=0;" edge="1" parent="1">
          <mxGeometry width="80" relative="1" as="geometry">
            <mxPoint x="340" y="170" as="sourcePoint" />
            <mxPoint x="450" y="170" as="targetPoint" />
          </mxGeometry>
        </mxCell>
        <mxCell id="YFojmDIgb_dbyA65SGon-48" value="masukan name dn pw" style="text;html=1;align=center;verticalAlign=middle;resizable=0;points=[];autosize=1;strokeColor=none;fillColor=none;" vertex="1" parent="1">
          <mxGeometry x="330" y="135" width="140" height="30" as="geometry" />
        </mxCell>
        <mxCell id="YFojmDIgb_dbyA65SGon-49" value="pasword salah" style="html=1;verticalAlign=bottom;endArrow=open;dashed=1;endSize=8;curved=0;rounded=0;" edge="1" parent="1">
          <mxGeometry relative="1" as="geometry">
            <mxPoint x="460" y="220" as="sourcePoint" />
            <mxPoint x="350" y="220" as="targetPoint" />
          </mxGeometry>
        </mxCell>
        <mxCell id="YFojmDIgb_dbyA65SGon-50" value="" style="html=1;verticalAlign=bottom;endArrow=open;dashed=1;endSize=8;curved=0;rounded=0;" edge="1" parent="1" target="aVzFbYq9FzDBz_rFKfk8-16">
          <mxGeometry relative="1" as="geometry">
            <mxPoint x="462.5" y="270" as="sourcePoint" />
            <mxPoint x="352" y="270" as="targetPoint" />
            <Array as="points">
              <mxPoint x="462.5" y="270" />
            </Array>
          </mxGeometry>
        </mxCell>
        <mxCell id="YFojmDIgb_dbyA65SGon-51" value="pasword salah" style="text;html=1;align=center;verticalAlign=middle;resizable=0;points=[];autosize=1;strokeColor=none;fillColor=none;" vertex="1" parent="1">
          <mxGeometry x="350" y="240" width="100" height="30" as="geometry" />
        </mxCell>
        <mxCell id="YFojmDIgb_dbyA65SGon-61" value="menampilkan home" style="html=1;verticalAlign=bottom;endArrow=block;curved=0;rounded=0;" edge="1" parent="1">
          <mxGeometry width="80" relative="1" as="geometry">
            <mxPoint x="330" y="320" as="sourcePoint" />
            <mxPoint x="620" y="320" as="targetPoint" />
          </mxGeometry>
        </mxCell>
        <mxCell id="YFojmDIgb_dbyA65SGon-68" value="" style="html=1;points=[[0,0,0,0,5],[0,1,0,0,-5],[1,0,0,0,5],[1,1,0,0,-5]];perimeter=orthogonalPerimeter;outlineConnect=0;targetShapes=umlLifeline;portConstraint=eastwest;newEdgeStyle={&quot;curved&quot;:0,&quot;rounded&quot;:0};" vertex="1" parent="1">
          <mxGeometry x="625" y="300" width="10" height="90" as="geometry" />
        </mxCell>
        <mxCell id="YFojmDIgb_dbyA65SGon-69" value="&lt;div&gt;&lt;br&gt;&lt;/div&gt;" style="html=1;verticalAlign=bottom;endArrow=open;dashed=1;endSize=8;curved=0;rounded=0;" edge="1" parent="1">
          <mxGeometry x="0.0545" y="-10" relative="1" as="geometry">
            <mxPoint x="620" y="389" as="sourcePoint" />
            <mxPoint x="70" y="389" as="targetPoint" />
            <mxPoint as="offset" />
          </mxGeometry>
        </mxCell>
        <mxCell id="YFojmDIgb_dbyA65SGon-72" value="menampilkan home" style="edgeLabel;html=1;align=center;verticalAlign=middle;resizable=0;points=[];" connectable="0" vertex="1" parent="YFojmDIgb_dbyA65SGon-69">
          <mxGeometry x="0.0191" y="-4" relative="1" as="geometry">
            <mxPoint as="offset" />
          </mxGeometry>
        </mxCell>
        <mxCell id="YFojmDIgb_dbyA65SGon-77" value="" style="shape=umlLifeline;perimeter=lifelinePerimeter;whiteSpace=wrap;html=1;container=1;dropTarget=0;collapsible=0;recursiveResize=0;outlineConnect=0;portConstraint=eastwest;newEdgeStyle={&quot;curved&quot;:0,&quot;rounded&quot;:0};participant=umlActor;" vertex="1" parent="1">
          <mxGeometry x="70" y="460" width="20" height="300" as="geometry" />
        </mxCell>
        <mxCell id="YFojmDIgb_dbyA65SGon-80" value="system" style="shape=umlLifeline;perimeter=lifelinePerimeter;whiteSpace=wrap;html=1;container=1;dropTarget=0;collapsible=0;recursiveResize=0;outlineConnect=0;portConstraint=eastwest;newEdgeStyle={&quot;curved&quot;:0,&quot;rounded&quot;:0};" vertex="1" parent="1">
          <mxGeometry x="290" y="470" width="100" height="290" as="geometry" />
        </mxCell>
        <mxCell id="oaIiAzME31Z_gCm99fnn-5" value="" style="html=1;points=[[0,0,0,0,5],[0,1,0,0,-5],[1,0,0,0,5],[1,1,0,0,-5]];perimeter=orthogonalPerimeter;outlineConnect=0;targetShapes=umlLifeline;portConstraint=eastwest;newEdgeStyle={&quot;curved&quot;:0,&quot;rounded&quot;:0};" vertex="1" parent="YFojmDIgb_dbyA65SGon-80">
          <mxGeometry x="45" y="120" width="10" height="170" as="geometry" />
        </mxCell>
        <mxCell id="YFojmDIgb_dbyA65SGon-81" value="database" style="shape=umlLifeline;perimeter=lifelinePerimeter;whiteSpace=wrap;html=1;container=1;dropTarget=0;collapsible=0;recursiveResize=0;outlineConnect=0;portConstraint=eastwest;newEdgeStyle={&quot;curved&quot;:0,&quot;rounded&quot;:0};" vertex="1" parent="1">
          <mxGeometry x="470" y="470" width="100" height="300" as="geometry" />
        </mxCell>
        <mxCell id="BMmGtDGAHEeO1DFimJ-9-5" value="" style="html=1;points=[[0,0,0,0,5],[0,1,0,0,-5],[1,0,0,0,5],[1,1,0,0,-5]];perimeter=orthogonalPerimeter;outlineConnect=0;targetShapes=umlLifeline;portConstraint=eastwest;newEdgeStyle={&quot;curved&quot;:0,&quot;rounded&quot;:0};" vertex="1" parent="YFojmDIgb_dbyA65SGon-81">
          <mxGeometry x="45" y="140" width="10" height="40" as="geometry" />
        </mxCell>
        <mxCell id="BMmGtDGAHEeO1DFimJ-9-8" value="" style="html=1;points=[[0,0,0,0,5],[0,1,0,0,-5],[1,0,0,0,5],[1,1,0,0,-5]];perimeter=orthogonalPerimeter;outlineConnect=0;targetShapes=umlLifeline;portConstraint=eastwest;newEdgeStyle={&quot;curved&quot;:0,&quot;rounded&quot;:0};" vertex="1" parent="YFojmDIgb_dbyA65SGon-81">
          <mxGeometry x="50" y="200" width="10" height="40" as="geometry" />
        </mxCell>
        <mxCell id="BMmGtDGAHEeO1DFimJ-9-9" value="3.eksekusi" style="html=1;align=left;spacingLeft=2;endArrow=block;rounded=0;edgeStyle=orthogonalEdgeStyle;curved=0;rounded=0;" edge="1" parent="YFojmDIgb_dbyA65SGon-81" target="BMmGtDGAHEeO1DFimJ-9-8">
          <mxGeometry relative="1" as="geometry">
            <mxPoint x="55" y="180" as="sourcePoint" />
            <Array as="points">
              <mxPoint x="55" y="140" />
              <mxPoint x="85" y="140" />
              <mxPoint x="85" y="210" />
            </Array>
          </mxGeometry>
        </mxCell>
        <mxCell id="BMmGtDGAHEeO1DFimJ-9-1" value="squence diagram login&lt;div&gt;&lt;br&gt;&lt;/div&gt;" style="text;html=1;align=center;verticalAlign=middle;resizable=0;points=[];autosize=1;strokeColor=none;fillColor=none;" vertex="1" parent="1">
          <mxGeometry x="-170" width="140" height="40" as="geometry" />
        </mxCell>
        <mxCell id="BMmGtDGAHEeO1DFimJ-9-2" value="squence diagram melihat data barang" style="text;html=1;align=center;verticalAlign=middle;resizable=0;points=[];autosize=1;strokeColor=none;fillColor=none;" vertex="1" parent="1">
          <mxGeometry x="-210" y="460" width="220" height="30" as="geometry" />
        </mxCell>
        <mxCell id="BMmGtDGAHEeO1DFimJ-9-4" value="admin" style="text;html=1;align=center;verticalAlign=middle;resizable=0;points=[];autosize=1;strokeColor=none;fillColor=none;" vertex="1" parent="1">
          <mxGeometry x="50" y="500" width="60" height="30" as="geometry" />
        </mxCell>
        <mxCell id="BMmGtDGAHEeO1DFimJ-9-12" value="2.query melihat barang&amp;nbsp;" style="html=1;verticalAlign=bottom;endArrow=block;curved=0;rounded=0;" edge="1" parent="1">
          <mxGeometry width="80" relative="1" as="geometry">
            <mxPoint x="360" y="620" as="sourcePoint" />
            <mxPoint x="510" y="620" as="targetPoint" />
          </mxGeometry>
        </mxCell>
        <mxCell id="BMmGtDGAHEeO1DFimJ-9-13" value="5.Data barag" style="html=1;verticalAlign=bottom;endArrow=open;dashed=1;endSize=8;curved=0;rounded=0;" edge="1" parent="1">
          <mxGeometry relative="1" as="geometry">
            <mxPoint x="330" y="720" as="sourcePoint" />
            <mxPoint x="100" y="720" as="targetPoint" />
          </mxGeometry>
        </mxCell>
        <mxCell id="BMmGtDGAHEeO1DFimJ-9-14" value="4.melihat data barang" style="html=1;verticalAlign=bottom;endArrow=open;dashed=1;endSize=8;curved=0;rounded=0;" edge="1" parent="1">
          <mxGeometry relative="1" as="geometry">
            <mxPoint x="510" y="700" as="sourcePoint" />
            <mxPoint x="370" y="700" as="targetPoint" />
          </mxGeometry>
        </mxCell>
        <mxCell id="BMmGtDGAHEeO1DFimJ-9-16" value="1.from melihat barang&amp;nbsp;" style="html=1;verticalAlign=bottom;endArrow=block;curved=0;rounded=0;" edge="1" parent="1">
          <mxGeometry width="80" relative="1" as="geometry">
            <mxPoint x="100" y="590" as="sourcePoint" />
            <mxPoint x="330" y="590" as="targetPoint" />
          </mxGeometry>
        </mxCell>
        <mxCell id="BMmGtDGAHEeO1DFimJ-9-17" value="squence mengelola peminjaman barang" style="text;html=1;align=center;verticalAlign=middle;resizable=0;points=[];autosize=1;strokeColor=none;fillColor=none;" vertex="1" parent="1">
          <mxGeometry x="-220" y="830" width="240" height="30" as="geometry" />
        </mxCell>
        <mxCell id="BMmGtDGAHEeO1DFimJ-9-18" value="admin" style="shape=umlLifeline;perimeter=lifelinePerimeter;whiteSpace=wrap;html=1;container=1;dropTarget=0;collapsible=0;recursiveResize=0;outlineConnect=0;portConstraint=eastwest;newEdgeStyle={&quot;curved&quot;:0,&quot;rounded&quot;:0};" vertex="1" parent="1">
          <mxGeometry x="85" y="800" width="100" height="550" as="geometry" />
        </mxCell>
        <mxCell id="BMmGtDGAHEeO1DFimJ-9-19" value="sistem" style="shape=umlLifeline;perimeter=lifelinePerimeter;whiteSpace=wrap;html=1;container=1;dropTarget=0;collapsible=0;recursiveResize=0;outlineConnect=0;portConstraint=eastwest;newEdgeStyle={&quot;curved&quot;:0,&quot;rounded&quot;:0};" vertex="1" parent="1">
          <mxGeometry x="260" y="800" width="100" height="560" as="geometry" />
        </mxCell>
        <mxCell id="BMmGtDGAHEeO1DFimJ-9-23" value="" style="html=1;points=[[0,0,0,0,5],[0,1,0,0,-5],[1,0,0,0,5],[1,1,0,0,-5]];perimeter=orthogonalPerimeter;outlineConnect=0;targetShapes=umlLifeline;portConstraint=eastwest;newEdgeStyle={&quot;curved&quot;:0,&quot;rounded&quot;:0};" vertex="1" parent="BMmGtDGAHEeO1DFimJ-9-19">
          <mxGeometry x="45" y="90" width="10" height="310" as="geometry" />
        </mxCell>
        <mxCell id="BMmGtDGAHEeO1DFimJ-9-20" value="Database" style="shape=umlLifeline;perimeter=lifelinePerimeter;whiteSpace=wrap;html=1;container=1;dropTarget=0;collapsible=0;recursiveResize=0;outlineConnect=0;portConstraint=eastwest;newEdgeStyle={&quot;curved&quot;:0,&quot;rounded&quot;:0};" vertex="1" parent="1">
          <mxGeometry x="450" y="780" width="100" height="570" as="geometry" />
        </mxCell>
        <mxCell id="BMmGtDGAHEeO1DFimJ-9-31" value="" style="html=1;points=[[0,0,0,0,5],[0,1,0,0,-5],[1,0,0,0,5],[1,1,0,0,-5]];perimeter=orthogonalPerimeter;outlineConnect=0;targetShapes=umlLifeline;portConstraint=eastwest;newEdgeStyle={&quot;curved&quot;:0,&quot;rounded&quot;:0};" vertex="1" parent="BMmGtDGAHEeO1DFimJ-9-20">
          <mxGeometry x="45" y="265" width="10" height="40" as="geometry" />
        </mxCell>
        <mxCell id="BMmGtDGAHEeO1DFimJ-9-65" value="" style="html=1;points=[[0,0,0,0,5],[0,1,0,0,-5],[1,0,0,0,5],[1,1,0,0,-5]];perimeter=orthogonalPerimeter;outlineConnect=0;targetShapes=umlLifeline;portConstraint=eastwest;newEdgeStyle={&quot;curved&quot;:0,&quot;rounded&quot;:0};" vertex="1" parent="BMmGtDGAHEeO1DFimJ-9-20">
          <mxGeometry x="45" y="330" width="10" height="30" as="geometry" />
        </mxCell>
        <mxCell id="BMmGtDGAHEeO1DFimJ-9-66" value="8.eksekusi" style="html=1;align=left;spacingLeft=2;endArrow=block;rounded=0;edgeStyle=orthogonalEdgeStyle;curved=0;rounded=0;" edge="1" parent="BMmGtDGAHEeO1DFimJ-9-20">
          <mxGeometry relative="1" as="geometry">
            <mxPoint x="54.99857142857155" y="269" as="sourcePoint" />
            <Array as="points">
              <mxPoint x="115" y="269" />
              <mxPoint x="115" y="359" />
              <mxPoint x="70" y="359" />
              <mxPoint x="70" y="358" />
            </Array>
            <mxPoint x="55.09857142857146" y="358" as="targetPoint" />
          </mxGeometry>
        </mxCell>
        <mxCell id="-p_a0HzHv0xyTyaOv3L7-10" value="" style="html=1;points=[[0,0,0,0,5],[0,1,0,0,-5],[1,0,0,0,5],[1,1,0,0,-5]];perimeter=orthogonalPerimeter;outlineConnect=0;targetShapes=umlLifeline;portConstraint=eastwest;newEdgeStyle={&quot;curved&quot;:0,&quot;rounded&quot;:0};" vertex="1" parent="BMmGtDGAHEeO1DFimJ-9-20">
          <mxGeometry x="45" y="130" width="10" height="30" as="geometry" />
        </mxCell>
        <mxCell id="-p_a0HzHv0xyTyaOv3L7-13" value="" style="html=1;points=[[0,0,0,0,5],[0,1,0,0,-5],[1,0,0,0,5],[1,1,0,0,-5]];perimeter=orthogonalPerimeter;outlineConnect=0;targetShapes=umlLifeline;portConstraint=eastwest;newEdgeStyle={&quot;curved&quot;:0,&quot;rounded&quot;:0};" vertex="1" parent="BMmGtDGAHEeO1DFimJ-9-20">
          <mxGeometry x="45" y="190" width="10" height="40" as="geometry" />
        </mxCell>
        <mxCell id="-p_a0HzHv0xyTyaOv3L7-14" value="3.eksekusi" style="html=1;align=left;spacingLeft=2;endArrow=block;rounded=0;edgeStyle=orthogonalEdgeStyle;curved=0;rounded=0;" edge="1" parent="BMmGtDGAHEeO1DFimJ-9-20" source="BMmGtDGAHEeO1DFimJ-9-20">
          <mxGeometry x="0.2119" relative="1" as="geometry">
            <mxPoint x="60.07" y="140" as="sourcePoint" />
            <Array as="points">
              <mxPoint x="115" y="130" />
              <mxPoint x="115" y="210" />
            </Array>
            <mxPoint x="54.99857142857156" y="210" as="targetPoint" />
            <mxPoint as="offset" />
          </mxGeometry>
        </mxCell>
        <mxCell id="-p_a0HzHv0xyTyaOv3L7-16" value="" style="html=1;points=[[0,0,0,0,5],[0,1,0,0,-5],[1,0,0,0,5],[1,1,0,0,-5]];perimeter=orthogonalPerimeter;outlineConnect=0;targetShapes=umlLifeline;portConstraint=eastwest;newEdgeStyle={&quot;curved&quot;:0,&quot;rounded&quot;:0};" vertex="1" parent="BMmGtDGAHEeO1DFimJ-9-20">
          <mxGeometry x="45" y="460" width="10" height="30" as="geometry" />
        </mxCell>
        <mxCell id="-p_a0HzHv0xyTyaOv3L7-29" value="" style="html=1;points=[[0,0,0,0,5],[0,1,0,0,-5],[1,0,0,0,5],[1,1,0,0,-5]];perimeter=orthogonalPerimeter;outlineConnect=0;targetShapes=umlLifeline;portConstraint=eastwest;newEdgeStyle={&quot;curved&quot;:0,&quot;rounded&quot;:0};" vertex="1" parent="BMmGtDGAHEeO1DFimJ-9-20">
          <mxGeometry x="45" y="510" width="10" height="40" as="geometry" />
        </mxCell>
        <mxCell id="BMmGtDGAHEeO1DFimJ-9-21" value="1.insert pemminjaman" style="html=1;verticalAlign=bottom;endArrow=block;curved=0;rounded=0;" edge="1" parent="1">
          <mxGeometry width="80" relative="1" as="geometry">
            <mxPoint x="134.92857142857133" y="890" as="sourcePoint" />
            <mxPoint x="300" y="890" as="targetPoint" />
            <mxPoint as="offset" />
          </mxGeometry>
        </mxCell>
        <mxCell id="BMmGtDGAHEeO1DFimJ-9-22" value="" style="html=1;verticalAlign=bottom;endArrow=block;curved=0;rounded=0;exitX=0.063;exitY=1.076;exitDx=0;exitDy=0;exitPerimeter=0;" edge="1" parent="1">
          <mxGeometry x="-0.6" y="40" width="80" relative="1" as="geometry">
            <mxPoint x="320.0799999999999" y="920.28" as="sourcePoint" />
            <mxPoint x="490" y="920" as="targetPoint" />
            <mxPoint as="offset" />
          </mxGeometry>
        </mxCell>
        <mxCell id="BMmGtDGAHEeO1DFimJ-9-30" value="4.data peminjaman" style="html=1;verticalAlign=bottom;endArrow=open;dashed=1;endSize=8;curved=0;rounded=0;" edge="1" parent="1">
          <mxGeometry relative="1" as="geometry">
            <mxPoint x="490" y="1000" as="sourcePoint" />
            <mxPoint x="320.5" y="1000" as="targetPoint" />
            <Array as="points">
              <mxPoint x="390.5" y="1000" />
            </Array>
          </mxGeometry>
        </mxCell>
        <mxCell id="BMmGtDGAHEeO1DFimJ-9-38" value="" style="html=1;verticalAlign=bottom;endArrow=block;curved=0;rounded=0;" edge="1" parent="1">
          <mxGeometry x="0.25" y="20" width="80" relative="1" as="geometry">
            <mxPoint x="325.25" y="1080" as="sourcePoint" />
            <mxPoint x="494.75" y="1080" as="targetPoint" />
            <mxPoint as="offset" />
            <Array as="points" />
          </mxGeometry>
        </mxCell>
        <mxCell id="BMmGtDGAHEeO1DFimJ-9-39" value="" style="html=1;verticalAlign=bottom;endArrow=open;dashed=1;endSize=8;curved=0;rounded=0;" edge="1" parent="1">
          <mxGeometry x="-0.108" y="-10" relative="1" as="geometry">
            <mxPoint x="497" y="1153.71" as="sourcePoint" />
            <mxPoint x="320" y="1153.71" as="targetPoint" />
            <mxPoint x="1" as="offset" />
            <Array as="points">
              <mxPoint x="417" y="1153.71" />
            </Array>
          </mxGeometry>
        </mxCell>
        <mxCell id="BMmGtDGAHEeO1DFimJ-9-46" value="9.data peminjaman" style="edgeLabel;html=1;align=center;verticalAlign=middle;resizable=0;points=[];" connectable="0" vertex="1" parent="BMmGtDGAHEeO1DFimJ-9-39">
          <mxGeometry x="-0.0625" y="-8" relative="1" as="geometry">
            <mxPoint x="2" y="-2" as="offset" />
          </mxGeometry>
        </mxCell>
        <mxCell id="BMmGtDGAHEeO1DFimJ-9-40" value="&lt;div&gt;&lt;br&gt;&lt;/div&gt;&lt;div&gt;&lt;br&gt;&lt;/div&gt;" style="html=1;verticalAlign=bottom;endArrow=open;dashed=1;endSize=8;curved=0;rounded=0;" edge="1" parent="1" target="BMmGtDGAHEeO1DFimJ-9-18">
          <mxGeometry x="-0.0972" y="-40" relative="1" as="geometry">
            <mxPoint x="290" y="1040" as="sourcePoint" />
            <mxPoint x="160" y="1040" as="targetPoint" />
            <mxPoint as="offset" />
          </mxGeometry>
        </mxCell>
        <mxCell id="BMmGtDGAHEeO1DFimJ-9-41" value="6.update peminjaman" style="html=1;verticalAlign=bottom;endArrow=block;curved=0;rounded=0;" edge="1" parent="1" source="BMmGtDGAHEeO1DFimJ-9-18">
          <mxGeometry width="80" relative="1" as="geometry">
            <mxPoint x="160" y="1090" as="sourcePoint" />
            <mxPoint x="300" y="1080" as="targetPoint" />
          </mxGeometry>
        </mxCell>
        <mxCell id="BMmGtDGAHEeO1DFimJ-9-44" value="7.proses update peminjaman" style="text;html=1;align=center;verticalAlign=middle;resizable=0;points=[];autosize=1;strokeColor=none;fillColor=none;" vertex="1" parent="1">
          <mxGeometry x="320" y="1050" width="180" height="30" as="geometry" />
        </mxCell>
        <mxCell id="BMmGtDGAHEeO1DFimJ-9-50" value="11.delete peminjaman" style="html=1;verticalAlign=bottom;endArrow=block;curved=0;rounded=0;" edge="1" parent="1">
          <mxGeometry width="80" relative="1" as="geometry">
            <mxPoint x="187.5" y="1210" as="sourcePoint" />
            <mxPoint x="307.5" y="1210" as="targetPoint" />
            <Array as="points">
              <mxPoint x="142.5" y="1210" />
              <mxPoint x="187.5" y="1210" />
            </Array>
          </mxGeometry>
        </mxCell>
        <mxCell id="BMmGtDGAHEeO1DFimJ-9-56" value="10.data peminjam" style="text;html=1;align=center;verticalAlign=middle;resizable=0;points=[];autosize=1;strokeColor=none;fillColor=none;" vertex="1" parent="1">
          <mxGeometry x="165" y="1139" width="120" height="30" as="geometry" />
        </mxCell>
        <mxCell id="BMmGtDGAHEeO1DFimJ-9-58" value="" style="html=1;verticalAlign=bottom;endArrow=open;dashed=1;endSize=8;curved=0;rounded=0;exitX=1.01;exitY=1.045;exitDx=0;exitDy=0;exitPerimeter=0;" edge="1" parent="1" target="BMmGtDGAHEeO1DFimJ-9-18">
          <mxGeometry relative="1" as="geometry">
            <mxPoint x="300.60000000000025" y="1168.3500000000001" as="sourcePoint" />
            <mxPoint x="159.4" y="1168" as="targetPoint" />
          </mxGeometry>
        </mxCell>
        <mxCell id="BMmGtDGAHEeO1DFimJ-9-60" value="12.proses delete peminjaman" style="html=1;verticalAlign=bottom;endArrow=block;curved=0;rounded=0;" edge="1" parent="1">
          <mxGeometry width="80" relative="1" as="geometry">
            <mxPoint x="309.92857142857133" y="1250" as="sourcePoint" />
            <mxPoint x="490" y="1250" as="targetPoint" />
            <Array as="points" />
          </mxGeometry>
        </mxCell>
        <mxCell id="BMmGtDGAHEeO1DFimJ-9-67" value="squence peminjaman barang" style="text;html=1;align=center;verticalAlign=middle;resizable=0;points=[];autosize=1;strokeColor=none;fillColor=none;" vertex="1" parent="1">
          <mxGeometry x="-160" y="1438" width="180" height="30" as="geometry" />
        </mxCell>
        <mxCell id="BMmGtDGAHEeO1DFimJ-9-69" value="admin" style="shape=umlLifeline;perimeter=lifelinePerimeter;whiteSpace=wrap;html=1;container=1;dropTarget=0;collapsible=0;recursiveResize=0;outlineConnect=0;portConstraint=eastwest;newEdgeStyle={&quot;curved&quot;:0,&quot;rounded&quot;:0};" vertex="1" parent="1">
          <mxGeometry x="10" y="1510" width="100" height="550" as="geometry" />
        </mxCell>
        <mxCell id="BMmGtDGAHEeO1DFimJ-9-70" value="sistem" style="shape=umlLifeline;perimeter=lifelinePerimeter;whiteSpace=wrap;html=1;container=1;dropTarget=0;collapsible=0;recursiveResize=0;outlineConnect=0;portConstraint=eastwest;newEdgeStyle={&quot;curved&quot;:0,&quot;rounded&quot;:0};" vertex="1" parent="1">
          <mxGeometry x="185" y="1510" width="100" height="560" as="geometry" />
        </mxCell>
        <mxCell id="BMmGtDGAHEeO1DFimJ-9-71" value="" style="html=1;points=[[0,0,0,0,5],[0,1,0,0,-5],[1,0,0,0,5],[1,1,0,0,-5]];perimeter=orthogonalPerimeter;outlineConnect=0;targetShapes=umlLifeline;portConstraint=eastwest;newEdgeStyle={&quot;curved&quot;:0,&quot;rounded&quot;:0};" vertex="1" parent="BMmGtDGAHEeO1DFimJ-9-70">
          <mxGeometry x="45" y="110" width="10" height="290" as="geometry" />
        </mxCell>
        <mxCell id="BMmGtDGAHEeO1DFimJ-9-72" value="Database" style="shape=umlLifeline;perimeter=lifelinePerimeter;whiteSpace=wrap;html=1;container=1;dropTarget=0;collapsible=0;recursiveResize=0;outlineConnect=0;portConstraint=eastwest;newEdgeStyle={&quot;curved&quot;:0,&quot;rounded&quot;:0};" vertex="1" parent="1">
          <mxGeometry x="375" y="1510" width="100" height="570" as="geometry" />
        </mxCell>
        <mxCell id="BMmGtDGAHEeO1DFimJ-9-73" value="" style="html=1;points=[[0,0,0,0,5],[0,1,0,0,-5],[1,0,0,0,5],[1,1,0,0,-5]];perimeter=orthogonalPerimeter;outlineConnect=0;targetShapes=umlLifeline;portConstraint=eastwest;newEdgeStyle={&quot;curved&quot;:0,&quot;rounded&quot;:0};" vertex="1" parent="BMmGtDGAHEeO1DFimJ-9-72">
          <mxGeometry x="45" y="150" width="10" height="30" as="geometry" />
        </mxCell>
        <mxCell id="BMmGtDGAHEeO1DFimJ-9-74" value="" style="html=1;points=[[0,0,0,0,5],[0,1,0,0,-5],[1,0,0,0,5],[1,1,0,0,-5]];perimeter=orthogonalPerimeter;outlineConnect=0;targetShapes=umlLifeline;portConstraint=eastwest;newEdgeStyle={&quot;curved&quot;:0,&quot;rounded&quot;:0};" vertex="1" parent="BMmGtDGAHEeO1DFimJ-9-72">
          <mxGeometry x="45" y="190" width="10" height="30" as="geometry" />
        </mxCell>
        <mxCell id="BMmGtDGAHEeO1DFimJ-9-75" value="3.eksekusi" style="html=1;align=left;spacingLeft=2;endArrow=block;rounded=0;edgeStyle=orthogonalEdgeStyle;curved=0;rounded=0;" edge="1" parent="BMmGtDGAHEeO1DFimJ-9-72" target="BMmGtDGAHEeO1DFimJ-9-74">
          <mxGeometry relative="1" as="geometry">
            <mxPoint x="55" y="200" as="sourcePoint" />
            <Array as="points">
              <mxPoint x="55" y="150" />
              <mxPoint x="85" y="150" />
              <mxPoint x="85" y="210" />
            </Array>
          </mxGeometry>
        </mxCell>
        <mxCell id="BMmGtDGAHEeO1DFimJ-9-76" value="" style="html=1;points=[[0,0,0,0,5],[0,1,0,0,-5],[1,0,0,0,5],[1,1,0,0,-5]];perimeter=orthogonalPerimeter;outlineConnect=0;targetShapes=umlLifeline;portConstraint=eastwest;newEdgeStyle={&quot;curved&quot;:0,&quot;rounded&quot;:0};" vertex="1" parent="BMmGtDGAHEeO1DFimJ-9-72">
          <mxGeometry x="45" y="260" width="10" height="30" as="geometry" />
        </mxCell>
        <mxCell id="BMmGtDGAHEeO1DFimJ-9-98" value="" style="html=1;points=[[0,0,0,0,5],[0,1,0,0,-5],[1,0,0,0,5],[1,1,0,0,-5]];perimeter=orthogonalPerimeter;outlineConnect=0;targetShapes=umlLifeline;portConstraint=eastwest;newEdgeStyle={&quot;curved&quot;:0,&quot;rounded&quot;:0};" vertex="1" parent="BMmGtDGAHEeO1DFimJ-9-72">
          <mxGeometry x="45" y="300" width="10" height="30" as="geometry" />
        </mxCell>
        <mxCell id="BMmGtDGAHEeO1DFimJ-9-99" value="8.eksekusi" style="html=1;align=left;spacingLeft=2;endArrow=block;rounded=0;edgeStyle=orthogonalEdgeStyle;curved=0;rounded=0;" edge="1" parent="BMmGtDGAHEeO1DFimJ-9-72" target="BMmGtDGAHEeO1DFimJ-9-98">
          <mxGeometry relative="1" as="geometry">
            <mxPoint x="50" y="280" as="sourcePoint" />
            <Array as="points">
              <mxPoint x="80" y="310" />
            </Array>
          </mxGeometry>
        </mxCell>
        <mxCell id="BMmGtDGAHEeO1DFimJ-9-105" value="" style="html=1;points=[[0,0,0,0,5],[0,1,0,0,-5],[1,0,0,0,5],[1,1,0,0,-5]];perimeter=orthogonalPerimeter;outlineConnect=0;targetShapes=umlLifeline;portConstraint=eastwest;newEdgeStyle={&quot;curved&quot;:0,&quot;rounded&quot;:0};" vertex="1" parent="BMmGtDGAHEeO1DFimJ-9-72">
          <mxGeometry x="45" y="490" width="10" height="40" as="geometry" />
        </mxCell>
        <mxCell id="BMmGtDGAHEeO1DFimJ-9-106" value="13.eksekusi" style="html=1;align=left;spacingLeft=2;endArrow=block;rounded=0;edgeStyle=orthogonalEdgeStyle;curved=0;rounded=0;exitX=0;exitY=1;exitDx=0;exitDy=-5;exitPerimeter=0;" edge="1" parent="BMmGtDGAHEeO1DFimJ-9-72" source="BMmGtDGAHEeO1DFimJ-9-107" target="BMmGtDGAHEeO1DFimJ-9-105">
          <mxGeometry relative="1" as="geometry">
            <mxPoint x="60" y="460" as="sourcePoint" />
            <Array as="points">
              <mxPoint x="45" y="460" />
              <mxPoint x="75" y="460" />
              <mxPoint x="75" y="490" />
            </Array>
          </mxGeometry>
        </mxCell>
        <mxCell id="BMmGtDGAHEeO1DFimJ-9-107" value="" style="html=1;points=[[0,0,0,0,5],[0,1,0,0,-5],[1,0,0,0,5],[1,1,0,0,-5]];perimeter=orthogonalPerimeter;outlineConnect=0;targetShapes=umlLifeline;portConstraint=eastwest;newEdgeStyle={&quot;curved&quot;:0,&quot;rounded&quot;:0};" vertex="1" parent="BMmGtDGAHEeO1DFimJ-9-72">
          <mxGeometry x="45" y="440" width="10" height="30" as="geometry" />
        </mxCell>
        <mxCell id="BMmGtDGAHEeO1DFimJ-9-81" value="1.insert pemminjaman" style="html=1;verticalAlign=bottom;endArrow=block;curved=0;rounded=0;" edge="1" parent="1" target="BMmGtDGAHEeO1DFimJ-9-70">
          <mxGeometry width="80" relative="1" as="geometry">
            <mxPoint x="60" y="1620" as="sourcePoint" />
            <mxPoint x="200" y="1620" as="targetPoint" />
            <mxPoint as="offset" />
          </mxGeometry>
        </mxCell>
        <mxCell id="BMmGtDGAHEeO1DFimJ-9-82" value="2.proses&amp;nbsp; insert peminjaman" style="html=1;verticalAlign=bottom;endArrow=block;curved=0;rounded=0;entryX=-0.211;entryY=-0.04;entryDx=0;entryDy=0;entryPerimeter=0;" edge="1" parent="1" source="BMmGtDGAHEeO1DFimJ-9-71" target="BMmGtDGAHEeO1DFimJ-9-73">
          <mxGeometry width="80" relative="1" as="geometry">
            <mxPoint x="264" y="1660" as="sourcePoint" />
            <mxPoint x="414" y="1660" as="targetPoint" />
          </mxGeometry>
        </mxCell>
        <mxCell id="BMmGtDGAHEeO1DFimJ-9-83" value="4.data peminjaman" style="html=1;verticalAlign=bottom;endArrow=open;dashed=1;endSize=8;curved=0;rounded=0;" edge="1" parent="1">
          <mxGeometry relative="1" as="geometry">
            <mxPoint x="419.5" y="1720" as="sourcePoint" />
            <mxPoint x="260" y="1720" as="targetPoint" />
            <Array as="points">
              <mxPoint x="330" y="1720" />
            </Array>
          </mxGeometry>
        </mxCell>
        <mxCell id="BMmGtDGAHEeO1DFimJ-9-84" value="" style="html=1;verticalAlign=bottom;endArrow=block;curved=0;rounded=0;" edge="1" parent="1">
          <mxGeometry x="0.25" y="20" width="80" relative="1" as="geometry">
            <mxPoint x="250.5" y="1794.5" as="sourcePoint" />
            <mxPoint x="420" y="1794.5" as="targetPoint" />
            <mxPoint as="offset" />
            <Array as="points" />
          </mxGeometry>
        </mxCell>
        <mxCell id="BMmGtDGAHEeO1DFimJ-9-85" value="" style="html=1;verticalAlign=bottom;endArrow=open;dashed=1;endSize=8;curved=0;rounded=0;" edge="1" parent="1">
          <mxGeometry x="-0.108" y="-10" relative="1" as="geometry">
            <mxPoint x="427" y="1850" as="sourcePoint" />
            <mxPoint x="250" y="1850" as="targetPoint" />
            <mxPoint x="1" as="offset" />
          </mxGeometry>
        </mxCell>
        <mxCell id="BMmGtDGAHEeO1DFimJ-9-86" value="9.data peminjaman" style="edgeLabel;html=1;align=center;verticalAlign=middle;resizable=0;points=[];" connectable="0" vertex="1" parent="BMmGtDGAHEeO1DFimJ-9-85">
          <mxGeometry x="-0.0625" y="-8" relative="1" as="geometry">
            <mxPoint x="2" y="-2" as="offset" />
          </mxGeometry>
        </mxCell>
        <mxCell id="BMmGtDGAHEeO1DFimJ-9-87" value="&lt;div&gt;&lt;br&gt;&lt;/div&gt;&lt;div&gt;5.data peminjaman&lt;/div&gt;" style="html=1;verticalAlign=bottom;endArrow=open;dashed=1;endSize=8;curved=0;rounded=0;" edge="1" parent="1" target="BMmGtDGAHEeO1DFimJ-9-69">
          <mxGeometry relative="1" as="geometry">
            <mxPoint x="225" y="1740" as="sourcePoint" />
            <mxPoint x="95" y="1740" as="targetPoint" />
          </mxGeometry>
        </mxCell>
        <mxCell id="BMmGtDGAHEeO1DFimJ-9-88" value="6.update peminjaman" style="html=1;verticalAlign=bottom;endArrow=block;curved=0;rounded=0;" edge="1" parent="1" target="BMmGtDGAHEeO1DFimJ-9-70">
          <mxGeometry width="80" relative="1" as="geometry">
            <mxPoint x="70" y="1770" as="sourcePoint" />
            <mxPoint x="200" y="1770" as="targetPoint" />
          </mxGeometry>
        </mxCell>
        <mxCell id="BMmGtDGAHEeO1DFimJ-9-89" value="" style="html=1;verticalAlign=bottom;endArrow=open;dashed=1;endSize=8;curved=0;rounded=0;" edge="1" parent="1">
          <mxGeometry relative="1" as="geometry">
            <mxPoint x="95" y="1930" as="sourcePoint" />
            <mxPoint x="95" y="1930" as="targetPoint" />
          </mxGeometry>
        </mxCell>
        <mxCell id="BMmGtDGAHEeO1DFimJ-9-90" value="7.proses update peminjaman" style="text;html=1;align=center;verticalAlign=middle;resizable=0;points=[];autosize=1;strokeColor=none;fillColor=none;" vertex="1" parent="1">
          <mxGeometry x="234" y="1770" width="180" height="30" as="geometry" />
        </mxCell>
        <mxCell id="BMmGtDGAHEeO1DFimJ-9-91" value="11.delete peminjaman" style="html=1;verticalAlign=bottom;endArrow=block;curved=0;rounded=0;" edge="1" parent="1" target="BMmGtDGAHEeO1DFimJ-9-70">
          <mxGeometry width="80" relative="1" as="geometry">
            <mxPoint x="80" y="1920" as="sourcePoint" />
            <mxPoint x="200" y="1920" as="targetPoint" />
            <Array as="points">
              <mxPoint x="60" y="1920" />
              <mxPoint x="80" y="1920" />
            </Array>
          </mxGeometry>
        </mxCell>
        <mxCell id="BMmGtDGAHEeO1DFimJ-9-92" value="" style="html=1;verticalAlign=bottom;endArrow=open;dashed=1;endSize=8;curved=0;rounded=0;" edge="1" parent="1">
          <mxGeometry relative="1" as="geometry">
            <mxPoint x="215" y="1930" as="sourcePoint" />
            <mxPoint x="215" y="1930" as="targetPoint" />
          </mxGeometry>
        </mxCell>
        <mxCell id="BMmGtDGAHEeO1DFimJ-9-95" value="12.proses delete peminjaman" style="html=1;verticalAlign=bottom;endArrow=block;curved=0;rounded=0;" edge="1" parent="1">
          <mxGeometry width="80" relative="1" as="geometry">
            <mxPoint x="244" y="1950" as="sourcePoint" />
            <mxPoint x="404" y="1950" as="targetPoint" />
          </mxGeometry>
        </mxCell>
        <mxCell id="BMmGtDGAHEeO1DFimJ-9-102" value="" style="html=1;verticalAlign=bottom;endArrow=open;dashed=1;endSize=8;curved=0;rounded=0;" edge="1" parent="1">
          <mxGeometry x="-0.108" y="-10" relative="1" as="geometry">
            <mxPoint x="237" y="1870" as="sourcePoint" />
            <mxPoint x="60" y="1870" as="targetPoint" />
            <mxPoint x="1" as="offset" />
          </mxGeometry>
        </mxCell>
        <mxCell id="BMmGtDGAHEeO1DFimJ-9-103" value="10.data peminjaman" style="edgeLabel;html=1;align=center;verticalAlign=middle;resizable=0;points=[];" connectable="0" vertex="1" parent="BMmGtDGAHEeO1DFimJ-9-102">
          <mxGeometry x="-0.0625" y="-8" relative="1" as="geometry">
            <mxPoint x="2" y="-2" as="offset" />
          </mxGeometry>
        </mxCell>
        <mxCell id="-p_a0HzHv0xyTyaOv3L7-6" value="5.data peminjam" style="text;html=1;align=center;verticalAlign=middle;resizable=0;points=[];autosize=1;strokeColor=none;fillColor=none;" vertex="1" parent="1">
          <mxGeometry x="145" y="1008" width="110" height="30" as="geometry" />
        </mxCell>
        <mxCell id="-p_a0HzHv0xyTyaOv3L7-8" value="&lt;span style=&quot;font-size: 11px; background-color: rgb(255, 255, 255);&quot;&gt;2.proses&amp;nbsp; insert peminjaman&lt;/span&gt;" style="text;html=1;align=center;verticalAlign=middle;resizable=0;points=[];autosize=1;strokeColor=none;fillColor=none;" vertex="1" parent="1">
          <mxGeometry x="320" y="890" width="160" height="30" as="geometry" />
        </mxCell>
        <mxCell id="-p_a0HzHv0xyTyaOv3L7-30" value="13.eksekusi" style="html=1;align=left;spacingLeft=2;endArrow=block;rounded=0;edgeStyle=orthogonalEdgeStyle;curved=0;rounded=0;" edge="1" parent="1">
          <mxGeometry x="0.1032" y="20" relative="1" as="geometry">
            <mxPoint x="505.01" y="1250" as="sourcePoint" />
            <Array as="points">
              <mxPoint x="504.98" y="1240" />
              <mxPoint x="534.98" y="1240" />
              <mxPoint x="534.98" y="1300" />
            </Array>
            <mxPoint x="509.98" y="1300" as="targetPoint" />
            <mxPoint as="offset" />
          </mxGeometry>
        </mxCell>
      </root>
    </mxGraphModel>
  </diagram>
</mxfile>
